<svg xmlns="http://www.w3.org/2000/svg" viewBox="0 0 209.75 140.85"><defs><style>.cls-1{fill:#fff;}.cls-2{fill:none;stroke:#f0802a;stroke-miterlimit:10;stroke-width:3.5px;}</style></defs><title>logo_tekst</title><g id="Layer_2" data-name="Layer 2"><path class="cls-1" d="M60.17,100.27V101H56.92V95.42h.91v4.85Z"/><path class="cls-1" d="M61.87,101H61V95.42h.92Z"/><path class="cls-1" d="M67.85,95.42V101h-.46a.36.36,0,0,1-.32-.16l-3.09-4c0,.08,0,.15,0,.22s0,.14,0,.21V101h-.8V95.42h.58l.08,0,.07,0,.07.08,3.09,4c0-.08,0-.16,0-.24s0-.15,0-.22V95.42Z"/><path class="cls-1" d="M71.24,99.06a2.91,2.91,0,0,1-.12.85,1.75,1.75,0,0,1-.34.64,1.52,1.52,0,0,1-.57.41,2,2,0,0,1-.78.14l-.4,0-.41-.08,0-.55a.21.21,0,0,1,.06-.12.2.2,0,0,1,.14,0l.18,0a1.36,1.36,0,0,0,.71,0,.75.75,0,0,0,.31-.22,1,1,0,0,0,.19-.39,2.2,2.2,0,0,0,.06-.57V95.42h.91Z"/><path class="cls-1" d="M76,100.3V101h-3.5V95.42H76v.74H73.43v1.69H75.5v.71H73.43v1.74Z"/><path class="cls-1" d="M77.93,96.16V98h2.2v.74h-2.2V101H77V95.42h3.5v.74Z"/><path class="cls-1" d="M86.65,98.23a3.18,3.18,0,0,1-.2,1.15,2.66,2.66,0,0,1-.57.91,2.6,2.6,0,0,1-.88.59,3.17,3.17,0,0,1-2.29,0,2.62,2.62,0,0,1-.89-.59,2.65,2.65,0,0,1-.57-.91,3.38,3.38,0,0,1,0-2.3,2.67,2.67,0,0,1,.57-.91,2.61,2.61,0,0,1,.89-.6,3.17,3.17,0,0,1,2.29,0,2.59,2.59,0,0,1,.88.6,2.68,2.68,0,0,1,.57.91A3.19,3.19,0,0,1,86.65,98.23Zm-.93,0a2.71,2.71,0,0,0-.13-.87,1.82,1.82,0,0,0-.37-.66,1.63,1.63,0,0,0-.59-.41,2.17,2.17,0,0,0-1.56,0,1.65,1.65,0,0,0-.59.41,1.84,1.84,0,0,0-.38.66,2.93,2.93,0,0,0,0,1.74,1.84,1.84,0,0,0,.38.65,1.64,1.64,0,0,0,.59.41,2.2,2.2,0,0,0,1.56,0,1.62,1.62,0,0,0,.59-.41,1.82,1.82,0,0,0,.38-.65A2.72,2.72,0,0,0,85.72,98.23Z"/><path class="cls-1" d="M91.93,101h-.82a.38.38,0,0,1-.35-.19L89.45,99a.43.43,0,0,0-.14-.14.5.5,0,0,0-.23,0h-.51V101h-.91V95.42H89.3a3.54,3.54,0,0,1,1,.11,1.81,1.81,0,0,1,.66.32,1.26,1.26,0,0,1,.38.5,1.76,1.76,0,0,1,0,1.2,1.5,1.5,0,0,1-.25.46,1.61,1.61,0,0,1-.41.36,2,2,0,0,1-.55.24.92.92,0,0,1,.29.29Zm-2.65-2.93a1.76,1.76,0,0,0,.55-.08,1.11,1.11,0,0,0,.39-.21.88.88,0,0,0,.23-.33,1.1,1.1,0,0,0,.08-.42.84.84,0,0,0-.3-.7,1.47,1.47,0,0,0-.92-.24h-.74v2Z"/><path class="cls-1" d="M96.11,100.3V101H92.6V95.42h3.5v.74H93.52v1.69h2.07v.71H93.52v1.74Z"/><path class="cls-1" d="M101.75,95.42V101h-.46a.36.36,0,0,1-.32-.16l-3.09-4c0,.08,0,.15,0,.22s0,.14,0,.21V101h-.8V95.42h.58l.08,0,.07,0,.07.08,3.09,4c0-.08,0-.16,0-.24s0-.15,0-.22V95.42Z"/><path class="cls-1" d="M104,101h-.92V95.42H104Z"/><path class="cls-1" d="M110,95.42V101h-.46a.36.36,0,0,1-.32-.16l-3.09-4c0,.08,0,.15,0,.22s0,.14,0,.21V101h-.8V95.42h.58l.08,0,.07,0,.07.08,3.09,4c0-.08,0-.16,0-.24s0-.15,0-.22V95.42Z"/><path class="cls-1" d="M115.93,98.27v2.22a3.24,3.24,0,0,1-2,.6,3.42,3.42,0,0,1-1.24-.21,2.73,2.73,0,0,1-.94-.59,2.59,2.59,0,0,1-.6-.91,3.09,3.09,0,0,1-.21-1.16,3.24,3.24,0,0,1,.2-1.17,2.55,2.55,0,0,1,1.49-1.5,3.29,3.29,0,0,1,1.2-.21,3.53,3.53,0,0,1,.63.05,3.12,3.12,0,0,1,.54.15,2.54,2.54,0,0,1,.85.52l-.26.42a.27.27,0,0,1-.16.12.27.27,0,0,1-.21,0l-.24-.14-.29-.14a2.13,2.13,0,0,0-.38-.11,2.73,2.73,0,0,0-.51,0,2.09,2.09,0,0,0-.8.15,1.7,1.7,0,0,0-.61.42,1.85,1.85,0,0,0-.39.66,2.58,2.58,0,0,0-.14.86,2.62,2.62,0,0,0,.14.9,1.89,1.89,0,0,0,.41.67,1.75,1.75,0,0,0,.64.42,2.56,2.56,0,0,0,1.46.07,2.8,2.8,0,0,0,.53-.21V99h-.78a.19.19,0,0,1-.14,0,.17.17,0,0,1-.05-.13v-.52Z"/><path class="cls-1" d="M120.52,100.3V101H117V95.42h3.5v.74h-2.59v1.69H120v.71h-2.07v1.74Z"/><path class="cls-1" d="M126.15,95.42V101h-.46a.36.36,0,0,1-.32-.16l-3.09-4c0,.08,0,.15,0,.22s0,.14,0,.21V101h-.8V95.42h.58l.08,0,.07,0,.07.08,3.09,4c0-.08,0-.16,0-.24s0-.15,0-.22V95.42Z"/><path class="cls-1" d="M130.35,96.16V98h2.2v.74h-2.2V101h-.92V95.42h3.5v.74Z"/><path class="cls-1" d="M139.07,98.23a3.18,3.18,0,0,1-.2,1.15,2.66,2.66,0,0,1-.57.91,2.6,2.6,0,0,1-.88.59,3.17,3.17,0,0,1-2.29,0,2.62,2.62,0,0,1-.89-.59,2.65,2.65,0,0,1-.57-.91,3.38,3.38,0,0,1,0-2.3,2.67,2.67,0,0,1,.57-.91,2.61,2.61,0,0,1,.89-.6,3.17,3.17,0,0,1,2.29,0,2.59,2.59,0,0,1,.88.6,2.68,2.68,0,0,1,.57.91A3.19,3.19,0,0,1,139.07,98.23Zm-.93,0a2.71,2.71,0,0,0-.13-.87,1.82,1.82,0,0,0-.37-.66,1.63,1.63,0,0,0-.59-.41,2.17,2.17,0,0,0-1.56,0,1.65,1.65,0,0,0-.59.41,1.84,1.84,0,0,0-.38.66,2.93,2.93,0,0,0,0,1.74,1.84,1.84,0,0,0,.38.65,1.64,1.64,0,0,0,.59.41,2.2,2.2,0,0,0,1.56,0,1.62,1.62,0,0,0,.59-.41,1.82,1.82,0,0,0,.38-.65A2.72,2.72,0,0,0,138.14,98.23Z"/><path class="cls-1" d="M144.35,101h-.82a.38.38,0,0,1-.35-.19L141.87,99a.43.43,0,0,0-.14-.14.5.5,0,0,0-.23,0H141V101h-.91V95.42h1.65a3.54,3.54,0,0,1,1,.11,1.81,1.81,0,0,1,.66.32,1.26,1.26,0,0,1,.38.5,1.76,1.76,0,0,1,0,1.2,1.5,1.5,0,0,1-.25.46,1.61,1.61,0,0,1-.41.36,2,2,0,0,1-.55.24.92.92,0,0,1,.29.29Zm-2.65-2.93a1.76,1.76,0,0,0,.55-.08,1.11,1.11,0,0,0,.39-.21.88.88,0,0,0,.23-.33,1.1,1.1,0,0,0,.08-.42.84.84,0,0,0-.3-.7,1.47,1.47,0,0,0-.92-.24H141v2Z"/><path class="cls-1" d="M147.89,101H147V95.42h.92Z"/><path class="cls-1" d="M153.09,96.18h-1.75V101h-.91V96.18h-1.76v-.76h4.42Z"/></g><g id="Layer_1" data-name="Layer 1"><polyline class="cls-2" points="47.87 98.1 33.19 98.1 33.19 83.42"/><polyline class="cls-2" points="33.14 58.33 33.14 43.64 47.82 43.64"/><polyline class="cls-2" points="161.98 98.12 176.66 98.12 176.66 83.44"/><polyline class="cls-2" points="176.66 58.37 176.66 43.69 161.98 43.69"/><path class="cls-1" d="M61.42,82.09v4.13H43.89V55.88h4.93v26.2Z"/><path class="cls-1" d="M92.93,71.05a17.16,17.16,0,0,1-1.09,6.21,14.36,14.36,0,0,1-3.09,4.9A14.09,14.09,0,0,1,84,85.37a17.13,17.13,0,0,1-12.39,0,14,14,0,0,1-7.89-8.11,18.18,18.18,0,0,1,0-12.43,14.39,14.39,0,0,1,3.1-4.91,14.13,14.13,0,0,1,4.79-3.22,17.14,17.14,0,0,1,12.39,0,14,14,0,0,1,4.78,3.22,14.47,14.47,0,0,1,3.09,4.91A17.16,17.16,0,0,1,92.93,71.05Zm-5,0a14.63,14.63,0,0,0-.71-4.7,9.94,9.94,0,0,0-2-3.54A8.81,8.81,0,0,0,82,60.58a11.72,11.72,0,0,0-8.4,0,8.9,8.9,0,0,0-3.2,2.23,10,10,0,0,0-2,3.54,15.82,15.82,0,0,0,0,9.42,9.85,9.85,0,0,0,2,3.53,8.85,8.85,0,0,0,3.2,2.21,11.87,11.87,0,0,0,8.4,0,8.76,8.76,0,0,0,3.19-2.21,9.82,9.82,0,0,0,2-3.53A14.69,14.69,0,0,0,87.89,71.05Z"/><path class="cls-1" d="M123.15,71.28v12a17.54,17.54,0,0,1-10.53,3.26A18.42,18.42,0,0,1,106,85.4a14.8,14.8,0,0,1-5.09-3.2,14,14,0,0,1-3.24-4.9,16.69,16.69,0,0,1-1.14-6.26,17.43,17.43,0,0,1,1.09-6.29,13.74,13.74,0,0,1,8.07-8.09,17.72,17.72,0,0,1,6.49-1.13,19.1,19.1,0,0,1,3.4.28,16.85,16.85,0,0,1,2.92.79,13.68,13.68,0,0,1,2.49,1.22,14,14,0,0,1,2.08,1.6l-1.41,2.25a1.4,1.4,0,0,1-.86.65,1.48,1.48,0,0,1-1.14-.25l-1.3-.76a11.33,11.33,0,0,0-1.57-.75,11.53,11.53,0,0,0-2-.57A14.78,14.78,0,0,0,112,59.8a11.32,11.32,0,0,0-4.33.79,9.27,9.27,0,0,0-3.3,2.25,10,10,0,0,0-2.11,3.55,13.9,13.9,0,0,0-.74,4.66,14.12,14.12,0,0,0,.78,4.85,10.14,10.14,0,0,0,2.21,3.62A9.43,9.43,0,0,0,108,81.79a13.82,13.82,0,0,0,7.88.38,15.15,15.15,0,0,0,2.88-1.12V75h-4.23a1,1,0,0,1-.76-.26.91.91,0,0,1-.27-.68v-2.8Z"/><path class="cls-1" d="M133.94,86.22h-5V55.88h5Z"/><path class="cls-1" d="M166.25,55.88V86.22h-2.51a2.14,2.14,0,0,1-1-.2,2.26,2.26,0,0,1-.76-.66L145.35,64q.06.61.09,1.21t0,1.11V86.22h-4.34V55.88h2.57a3.89,3.89,0,0,1,.54,0,1.53,1.53,0,0,1,.41.12,1.19,1.19,0,0,1,.36.25,4,4,0,0,1,.36.42l16.68,21.42q-.06-.65-.09-1.28t0-1.18V55.88Z"/></g></svg>